<?xml version="1.0" standalone="no"?>
<!DOCTYPE svg PUBLIC "-//W3C//DTD SVG 20010904//EN"
 "http://www.w3.org/TR/2001/REC-SVG-20010904/DTD/svg10.dtd">
<svg version="1.0" xmlns="http://www.w3.org/2000/svg"
 width="768.000000pt" height="768.000000pt" viewBox="0 0 768.000000 768.000000"
 preserveAspectRatio="xMidYMid meet">
<metadata>
Created by potrace 1.14, written by Peter Selinger 2001-2017
</metadata>
<g transform="translate(0.000000,768.000000) scale(0.100000,-0.100000)"
fill="#000000" stroke="none">
<path d="M2098 7094 c-153 -36 -294 -146 -362 -285 -36 -73 -39 -84 -52 -164
-4 -22 -8 -229 -9 -460 -1 -231 -3 -422 -3 -425 -1 -3 -206 -5 -455 -5 -471
-1 -489 -2 -622 -47 -182 -62 -348 -204 -442 -378 -32 -59 -72 -163 -79 -208
-2 -15 -7 -40 -11 -57 -10 -43 -10 -3966 -1 -3971 5 -3 6 -10 2 -15 -7 -13 23
-115 49 -164 23 -43 75 -113 115 -152 68 -68 207 -132 302 -139 30 -2 1529 -4
3330 -5 2279 0 3291 3 3325 11 220 47 384 209 428 421 10 51 13 449 11 2024 0
1078 -4 1978 -8 2000 -33 179 -106 318 -236 446 -78 77 -178 144 -260 174 -25
9 -54 21 -65 25 -11 5 -38 12 -60 16 -22 4 -47 9 -55 12 -8 2 -220 5 -470 7
-250 1 -458 3 -461 4 -3 0 -6 193 -6 429 0 432 -1 451 -23 532 -7 25 -11 47
-10 49 1 2 -2 7 -7 10 -4 3 -19 29 -33 56 -35 70 -143 174 -221 213 -131 64
-24 61 -1872 60 -1368 0 -1693 -3 -1739 -14z m3363 -548 c6 -170 2 -786 -6
-789 -9 -3 -3223 -1 -3235 2 -7 1 -4 776 3 794 4 11 276 13 1621 13 l1616 0 1
-20z m1461 -1354 c78 -38 128 -98 154 -182 12 -39 11 -869 -1 -873 -9 -3
-6463 -1 -6475 2 -3 0 -5 196 -4 434 1 423 1 433 22 477 39 81 101 134 179
154 31 8 902 11 3061 11 l3017 0 47 -23z m-4165 -2253 c1 -360 2 -664 2 -675
1 -21 5 -22 101 -20 55 0 100 -3 100 -7 0 -5 5 -5 12 -1 16 10 99 11 121 1 9
-4 17 -4 17 0 0 4 45 8 100 8 55 0 100 -4 100 -8 0 -5 4 -5 10 -2 9 6 94 9
115 5 6 -1 15 -1 20 0 13 3 167 3 180 0 6 -1 15 -1 20 0 13 2 87 2 100 0 6 -1
12 -2 15 -1 18 7 150 4 150 -2 0 -5 5 -5 12 -1 16 10 99 11 121 1 9 -4 17 -4
17 0 0 9 321 8 344 0 8 -3 17 -3 20 0 5 6 198 8 221 3 6 -1 15 -1 20 0 20 4
137 0 146 -6 5 -3 9 -1 9 3 0 5 20 8 45 7 35 -1 45 2 46 15 0 9 1 313 2 675
l2 659 1073 0 c590 0 1076 -3 1080 -7 4 -4 7 -552 7 -1217 l0 -1209 -35 -1
c-19 -1 -39 0 -45 1 -5 1 -16 2 -22 1 -7 0 -19 -2 -25 -2 -7 -1 -49 -1 -93 0
-44 0 -87 0 -95 0 -8 -1 -31 0 -50 0 -42 2 -205 2 -242 0 -7 0 -39 0 -70 1
-31 1 -60 0 -65 -3 -4 -2 -17 -1 -28 3 -11 4 -30 4 -42 -1 -12 -5 -25 -4 -28
0 -3 5 -20 6 -38 2 -18 -5 -41 -5 -52 -1 -11 4 -30 4 -42 -1 -12 -5 -25 -4
-28 0 -3 5 -20 6 -38 2 -18 -5 -41 -5 -52 -1 -11 4 -30 4 -42 -1 -12 -5 -25
-4 -28 0 -3 5 -20 6 -38 2 -18 -5 -41 -5 -52 -1 -11 4 -30 4 -42 -1 -12 -5
-25 -4 -28 0 -3 5 -20 6 -38 2 -18 -5 -41 -5 -52 -1 -11 4 -30 4 -42 -1 -12
-5 -25 -4 -28 0 -3 5 -20 6 -38 2 -18 -5 -41 -5 -52 -1 -11 4 -30 4 -42 -1
-12 -5 -25 -4 -28 0 -3 5 -20 6 -38 2 -18 -5 -41 -5 -52 -1 -11 4 -30 4 -42
-1 -12 -5 -25 -4 -28 0 -3 5 -20 6 -38 2 -18 -5 -41 -5 -52 -1 -11 4 -30 4
-42 -1 -12 -5 -25 -4 -28 0 -3 5 -20 6 -38 2 -18 -5 -41 -5 -52 -1 -11 4 -30
4 -42 -1 -12 -5 -25 -4 -28 0 -3 5 -20 6 -38 2 -18 -5 -41 -5 -52 -1 -11 4
-30 4 -42 -1 -12 -5 -25 -4 -28 0 -3 5 -20 6 -38 2 -18 -5 -41 -5 -52 -1 -11
4 -30 4 -42 -1 -12 -5 -25 -4 -28 0 -3 5 -20 6 -38 2 -18 -5 -41 -5 -52 -1
-11 4 -30 4 -42 -1 -12 -5 -25 -4 -28 0 -3 5 -20 6 -38 2 -18 -5 -41 -5 -52
-1 -11 4 -30 4 -42 -1 -12 -5 -25 -4 -28 0 -3 5 -20 6 -38 2 -18 -5 -41 -5
-52 -1 -11 4 -30 4 -42 -1 -12 -5 -25 -4 -28 0 -3 5 -20 6 -38 2 -18 -5 -41
-5 -52 -1 -11 4 -30 4 -42 -1 -12 -5 -25 -4 -28 0 -3 5 -20 6 -38 2 -18 -5
-41 -5 -52 -1 -11 4 -29 4 -40 1 -11 -4 -33 -5 -50 -4 -32 3 -47 4 -67 2 -7
-1 -49 -1 -93 0 -44 0 -87 0 -95 0 -8 -1 -31 0 -50 0 -29 2 -115 2 -215 1 -11
0 -56 1 -100 1 -44 1 -86 1 -92 0 -7 0 -19 -1 -25 -2 -7 -1 -29 0 -48 0 -48 3
-216 2 -242 0 -7 -1 -49 -1 -93 0 -44 0 -87 0 -95 0 -8 -1 -31 0 -50 0 -48 3
-216 2 -242 0 -7 -1 -49 -1 -93 0 -44 0 -87 0 -95 0 -8 -1 -31 0 -50 0 -48 3
-216 2 -242 0 -7 -1 -49 -1 -93 0 -44 0 -87 0 -95 0 -8 -1 -31 0 -50 0 -42 2
-205 2 -242 0 -7 0 -39 0 -70 1 -31 1 -60 0 -65 -3 -4 -2 -17 -1 -28 3 -11 4
-30 4 -42 -1 -12 -5 -25 -4 -28 0 -3 5 -20 6 -38 2 -18 -5 -41 -5 -52 -1 -11
4 -30 4 -42 -1 -12 -5 -25 -4 -28 0 -3 5 -20 6 -38 2 -18 -5 -41 -5 -52 -1
-11 4 -30 4 -42 -1 -12 -5 -25 -4 -28 0 -3 5 -20 6 -38 2 -18 -5 -41 -5 -52
-1 -11 4 -29 4 -40 1 -11 -4 -34 -5 -50 -2 l-30 6 1 1205 c1 663 2 1210 3
1215 1 7 367 10 1079 9 l1077 -1 2 -654z m1618 649 c5 -4 6 -250 5 -704 l0
-102 -540 0 -540 1 0 403 c0 259 4 404 10 406 16 5 1060 1 1065 -4z"/>
</g>
</svg>
