<svg width="153" height="109" fill="none" xmlns="http://www.w3.org/2000/svg"><path d="M151 .212c-18.811 12.619-20.813 21.776-22.443 24.578-1.56 2.872-2.724 14.196-5.425 19.681-2.724 5.556-12.618 9.935-15.389 11.771-2.723 1.836-6.588 8.97-9.754 15.114-25.167-1.036-38.973 9.135-60.345 22.036 6.844-2.284 10.08-3.932 10.08-3.932 21.931-8.475 32.431-16.08 65.444-11.583.256 0 .442.142.652.189.908.518 1.234 1.624.722 2.542l-12.549 22.554a2.788 2.788 0 01-3.05 1.436c-29.52-5.603-52.825 4.072-74.244 4.378C7.611 109.235 2 101.09 2 100.713c0-.259.14-.4.396-.4 0 0 8.916 0 24.003-3.602 17.135-33.03 32.407-44.589 49.03-44.589 0 0 16.693 0 21.093 14.573 5.308-9.346 6.588-11.583 6.588-11.583 1.234-2.213 8.149-18.174 20.115-33.288C135.215 6.757 144.272 3.014 151 .212z" fill="#737373"/></svg>