<svg width="25" height="25" fill="none" xmlns="http://www.w3.org/2000/svg"><path fill-rule="evenodd" clip-rule="evenodd" d="M17.555 16.466l6.401 6.456a1.216 1.216 0 010 1.712 1.195 1.195 0 01-1.698 0l-6.4-6.456a9.461 9.461 0 01-12.97-1.244 9.65 9.65 0 01-2.372-6.649A9.64 9.64 0 013.3 3.8 9.48 9.48 0 019.73.994a9.47 9.47 0 016.592 2.391 9.658 9.658 0 011.233 13.081h.001zm-7.525 1.322a7.108 7.108 0 005.048-2.11 7.231 7.231 0 002.09-5.09c0-1.91-.751-3.74-2.09-5.09a7.108 7.108 0 00-5.048-2.11 7.108 7.108 0 00-5.047 2.11 7.231 7.231 0 00-2.091 5.09c0 1.91.752 3.74 2.09 5.09a7.108 7.108 0 005.048 2.11z" fill="#737373"/></svg>